# xmcd
#
# Track frame offsets: 
#        150
#        4527
#        23804
#        40515
#        56425
#        77323
#        93765
#        108298
#        125518
#        142773
#        161395
#        180754
#        199189
#        217072
#        235468
#        254320
#        273552
#
# Disc length: 3880 seconds
#
# Revision: 0
# Processed by: cddbd v1.5.2PL0 Copyright (c) Steve Scherf et al.
# Submitted via: ExactAudioCopy v0.95a5
#
DISCID=cc0f2611
DTITLE=La Fouine - Aller-retour
DYEAR=2007
DGENRE=
TTITLE0=Intro
TTITLE1=Qui peut me stopper ?
TTITLE2=Reste en chien (feat. Booba)
TTITLE3=Drole de parcours
TTITLE4=Tomber pour elle (feat. Amel Bent)
TTITLE5=La dance ghetto
TTITLE6=C'est pas la peine
TTITLE7=Chronique d'un dealer
TTITLE8=Controle abusif
TTITLE9=Laissez-moi denoncer
TTITLE10=On s'en bat les c...s
TTITLE11=Banlieue sale (feat. Gued'i and Kennedy)
TTITLE12=Le coeur du probleme
TTITLE13=Je regarde la-haut
TTITLE14=My life
TTITLE15=Partout pareil
TTITLE16=Quel est mon role ?
EXTD=
EXTT0=
EXTT1=
EXTT2=
EXTT3=
EXTT4=
EXTT5=
EXTT6=
EXTT7=
EXTT8=
EXTT9=
EXTT10=
EXTT11=
EXTT12=
EXTT13=
EXTT14=
EXTT15=
EXTT16=
PLAYORDER=
